<svg xmlns="http://www.w3.org/2000/svg" viewBox="0 0 256 256" role="img" aria-labelledby="title desc">
  <title id="title">3X-UI Ratio</title>
  <desc id="desc">A transparent gradient 3X-UI Ratio application icon.</desc>
  <defs>
    <linearGradient id="frame" x1="20" y1="220" x2="230" y2="20" gradientUnits="userSpaceOnUse">
      <stop offset="0" stop-color="#8557ff"/>
      <stop offset=".45" stop-color="#3c9cff"/>
      <stop offset=".72" stop-color="#17d8ee"/>
      <stop offset="1" stop-color="#48e59a"/>
    </linearGradient>
    <linearGradient id="three" x1="65" y1="72" x2="126" y2="164" gradientUnits="userSpaceOnUse">
      <stop stop-color="#2f9cff"/>
      <stop offset=".48" stop-color="#696cff"/>
      <stop offset="1" stop-color="#a850e9"/>
    </linearGradient>
    <linearGradient id="ex" x1="126" y1="69" x2="194" y2="165" gradientUnits="userSpaceOnUse">
      <stop stop-color="#20c9ff"/>
      <stop offset=".52" stop-color="#24dfcf"/>
      <stop offset="1" stop-color="#57e58b"/>
    </linearGradient>
    <linearGradient id="label" x1="80" y1="184" x2="178" y2="205" gradientUnits="userSpaceOnUse">
      <stop stop-color="#78c9ff"/>
      <stop offset="1" stop-color="#61f0df"/>
    </linearGradient>
    <filter id="glow" x="-60%" y="-60%" width="220%" height="220%">
      <feGaussianBlur stdDeviation="4.5" result="b"/>
      <feMerge><feMergeNode in="b"/><feMergeNode in="SourceGraphic"/></feMerge>
    </filter>
  </defs>

  <rect x="30" y="26" width="196" height="196" rx="44" fill="none" stroke="url(#frame)" stroke-width="4" opacity=".92" filter="url(#glow)"/>
  <rect x="42" y="38" width="172" height="172" rx="34" fill="none" stroke="#5da7e8" stroke-opacity=".22" stroke-width="1.5"/>

  <g opacity=".55" stroke="#5dc7f0" stroke-width="2" stroke-linecap="round" stroke-dasharray="7 8">
    <path d="M128 29v35M128 191v30M31 124h34M191 124h34"/>
  </g>
  <g fill="#69e7e4" filter="url(#glow)">
    <circle cx="128" cy="28" r="4"/><circle cx="128" cy="222" r="4"/>
    <circle cx="30" cy="124" r="4"/><circle cx="226" cy="124" r="4"/>
  </g>
  <g fill="#8b69ff" opacity=".9">
    <circle cx="50" cy="50" r="3.4"/><circle cx="206" cy="50" r="3.4"/>
  </g>
  <g fill="#55e49a" opacity=".9">
    <circle cx="50" cy="202" r="3.4"/><circle cx="206" cy="202" r="3.4"/>
  </g>

  <g>
    <path fill="url(#three)" d="M76 77c8-9 20-14 34-14 19 0 34 10 34 27 0 11-6 20-17 24 13 4 21 14 21 28 0 21-17 35-42 35-17 0-31-6-41-17l14-16c7 7 15 11 25 11 11 0 18-5 18-13 0-9-7-13-22-13H89v-20h12c13 0 19-4 19-12 0-7-5-11-14-11-8 0-15 3-22 9L76 77z"/>
    <path fill="url(#ex)" d="M145 67h27l18 30 18-30h27l-31 49 33 57h-28l-19-35-20 35h-28l34-57-31-49z"/>
    <path d="M84 78c8-7 17-10 26-10 15 0 27 7 30 19" fill="none" stroke="#c2e9ff" stroke-opacity=".5" stroke-width="3" stroke-linecap="round"/>
    <path d="M154 73h14l14 25" fill="none" stroke="#d6fff9" stroke-opacity=".5" stroke-width="3" stroke-linecap="round"/>
  </g>

  <text x="128" y="202" text-anchor="middle" fill="url(#label)" font-family="Segoe UI,Arial,sans-serif" font-size="22" font-weight="700" letter-spacing=".6">UI Ratio</text>
</svg>
